<svg width="100" height="100" xmlns="http://www.w3.org/2000/svg">
 <metadata>Svg Vector Icons : http://www.onlinewebfonts.com/icon</metadata>

 <g>
  <title>background</title>
  <rect fill="none" id="canvas_background" height="102" width="102" y="-1" x="-1"/>
 </g>
 <g>
  <title>Layer 1</title>
  <g stroke="null" id="svg_1">
   <path stroke="null" fill="#999999" id="svg_2" d="m50.002286,43.551101c-4.504231,0 -8.160769,3.651955 -8.160769,8.160769c0,4.504231 3.651955,8.160769 8.160769,8.160769c4.508813,0 8.160769,-3.651955 8.160769,-8.160769c0,-4.504231 -3.651955,-8.160769 -8.160769,-8.160769zm-13.604336,-10.20898l-4.751666,0l0,2.057375l4.751666,0l0,-2.057375zm33.160856,4.09184l-8.889327,0c-0.673573,-0.485705 -1.475445,-1.342563 -2.213168,-2.86383c-0.893515,-1.842015 -4.110168,-1.901583 -4.110168,-1.901583l-10.364772,0c0,0 -1.058471,-0.261181 -2.30481,1.878672c-0.843111,1.452534 -1.608327,2.350631 -2.327721,2.882158l-8.903073,0c-1.599162,0 -2.895904,1.374638 -2.895904,3.070025l0,23.772077c0,1.695387 1.296742,3.070025 2.895904,3.070025l39.108457,0c1.599162,0 2.895904,-1.374638 2.895904,-3.070025l0,-23.772077c0.004582,-1.690805 -1.29216,-3.065443 -2.891322,-3.065443l0,0zm-19.561102,24.491471c-5.631434,0 -10.199815,-4.568381 -10.199815,-10.199815s4.568381,-10.204398 10.199815,-10.204398c5.631434,0 10.199815,4.568381 10.199815,10.199815s-4.568381,10.204398 -10.199815,10.204398zm14.621568,-18.369748c-0.939336,0 -1.695387,-0.760633 -1.695387,-1.704551c0,-0.939336 0.760633,-1.704551 1.695387,-1.704551c0.939336,0 1.699969,0.760633 1.699969,1.704551c0,0.943918 -0.760633,1.704551 -1.699969,1.704551l0,0z"/>
  </g>
 </g>
</svg>